G04 #@! TF.GenerationSoftware,KiCad,Pcbnew,9.0.1-9.0.1-0~ubuntu24.04.1*
G04 #@! TF.CreationDate,2025-05-03T19:14:28+01:00*
G04 #@! TF.ProjectId,Kicad_Amplificador,4b696361-645f-4416-9d70-6c6966696361,rev?*
G04 #@! TF.SameCoordinates,Original*
G04 #@! TF.FileFunction,Legend,Top*
G04 #@! TF.FilePolarity,Positive*
%FSLAX46Y46*%
G04 Gerber Fmt 4.6, Leading zero omitted, Abs format (unit mm)*
G04 Created by KiCad (PCBNEW 9.0.1-9.0.1-0~ubuntu24.04.1) date 2025-05-03 19:14:28*
%MOMM*%
%LPD*%
G01*
G04 APERTURE LIST*
%ADD10C,0.100000*%
%ADD11C,0.150000*%
%ADD12C,0.120000*%
%ADD13C,0.127000*%
G04 APERTURE END LIST*
D10*
X146253884Y-114441466D02*
X147015789Y-114441466D01*
X146634836Y-114822419D02*
X146634836Y-114060514D01*
X149015789Y-114441466D02*
X149777694Y-114441466D01*
X104953884Y-116216466D02*
X105715789Y-116216466D01*
X105334836Y-116597419D02*
X105334836Y-115835514D01*
X110001504Y-116216466D02*
X110763409Y-116216466D01*
D11*
X140784819Y-100451904D02*
X141594342Y-100451904D01*
X141594342Y-100451904D02*
X141689580Y-100404285D01*
X141689580Y-100404285D02*
X141737200Y-100356666D01*
X141737200Y-100356666D02*
X141784819Y-100261428D01*
X141784819Y-100261428D02*
X141784819Y-100070952D01*
X141784819Y-100070952D02*
X141737200Y-99975714D01*
X141737200Y-99975714D02*
X141689580Y-99928095D01*
X141689580Y-99928095D02*
X141594342Y-99880476D01*
X141594342Y-99880476D02*
X140784819Y-99880476D01*
X141784819Y-98880476D02*
X141784819Y-99451904D01*
X141784819Y-99166190D02*
X140784819Y-99166190D01*
X140784819Y-99166190D02*
X140927676Y-99261428D01*
X140927676Y-99261428D02*
X141022914Y-99356666D01*
X141022914Y-99356666D02*
X141070533Y-99451904D01*
X152944819Y-104695238D02*
X152468628Y-105028571D01*
X152944819Y-105266666D02*
X151944819Y-105266666D01*
X151944819Y-105266666D02*
X151944819Y-104885714D01*
X151944819Y-104885714D02*
X151992438Y-104790476D01*
X151992438Y-104790476D02*
X152040057Y-104742857D01*
X152040057Y-104742857D02*
X152135295Y-104695238D01*
X152135295Y-104695238D02*
X152278152Y-104695238D01*
X152278152Y-104695238D02*
X152373390Y-104742857D01*
X152373390Y-104742857D02*
X152421009Y-104790476D01*
X152421009Y-104790476D02*
X152468628Y-104885714D01*
X152468628Y-104885714D02*
X152468628Y-105266666D01*
X151944819Y-104409523D02*
X152944819Y-104076190D01*
X152944819Y-104076190D02*
X151944819Y-103742857D01*
X152944819Y-102885714D02*
X152944819Y-103457142D01*
X152944819Y-103171428D02*
X151944819Y-103171428D01*
X151944819Y-103171428D02*
X152087676Y-103266666D01*
X152087676Y-103266666D02*
X152182914Y-103361904D01*
X152182914Y-103361904D02*
X152230533Y-103457142D01*
X152109580Y-95666666D02*
X152157200Y-95714285D01*
X152157200Y-95714285D02*
X152204819Y-95857142D01*
X152204819Y-95857142D02*
X152204819Y-95952380D01*
X152204819Y-95952380D02*
X152157200Y-96095237D01*
X152157200Y-96095237D02*
X152061961Y-96190475D01*
X152061961Y-96190475D02*
X151966723Y-96238094D01*
X151966723Y-96238094D02*
X151776247Y-96285713D01*
X151776247Y-96285713D02*
X151633390Y-96285713D01*
X151633390Y-96285713D02*
X151442914Y-96238094D01*
X151442914Y-96238094D02*
X151347676Y-96190475D01*
X151347676Y-96190475D02*
X151252438Y-96095237D01*
X151252438Y-96095237D02*
X151204819Y-95952380D01*
X151204819Y-95952380D02*
X151204819Y-95857142D01*
X151204819Y-95857142D02*
X151252438Y-95714285D01*
X151252438Y-95714285D02*
X151300057Y-95666666D01*
X151204819Y-95333332D02*
X151204819Y-94714285D01*
X151204819Y-94714285D02*
X151585771Y-95047618D01*
X151585771Y-95047618D02*
X151585771Y-94904761D01*
X151585771Y-94904761D02*
X151633390Y-94809523D01*
X151633390Y-94809523D02*
X151681009Y-94761904D01*
X151681009Y-94761904D02*
X151776247Y-94714285D01*
X151776247Y-94714285D02*
X152014342Y-94714285D01*
X152014342Y-94714285D02*
X152109580Y-94761904D01*
X152109580Y-94761904D02*
X152157200Y-94809523D01*
X152157200Y-94809523D02*
X152204819Y-94904761D01*
X152204819Y-94904761D02*
X152204819Y-95190475D01*
X152204819Y-95190475D02*
X152157200Y-95285713D01*
X152157200Y-95285713D02*
X152109580Y-95333332D01*
X116387200Y-111643332D02*
X116434819Y-111500475D01*
X116434819Y-111500475D02*
X116434819Y-111262380D01*
X116434819Y-111262380D02*
X116387200Y-111167142D01*
X116387200Y-111167142D02*
X116339580Y-111119523D01*
X116339580Y-111119523D02*
X116244342Y-111071904D01*
X116244342Y-111071904D02*
X116149104Y-111071904D01*
X116149104Y-111071904D02*
X116053866Y-111119523D01*
X116053866Y-111119523D02*
X116006247Y-111167142D01*
X116006247Y-111167142D02*
X115958628Y-111262380D01*
X115958628Y-111262380D02*
X115911009Y-111452856D01*
X115911009Y-111452856D02*
X115863390Y-111548094D01*
X115863390Y-111548094D02*
X115815771Y-111595713D01*
X115815771Y-111595713D02*
X115720533Y-111643332D01*
X115720533Y-111643332D02*
X115625295Y-111643332D01*
X115625295Y-111643332D02*
X115530057Y-111595713D01*
X115530057Y-111595713D02*
X115482438Y-111548094D01*
X115482438Y-111548094D02*
X115434819Y-111452856D01*
X115434819Y-111452856D02*
X115434819Y-111214761D01*
X115434819Y-111214761D02*
X115482438Y-111071904D01*
X115434819Y-110738570D02*
X116434819Y-110500475D01*
X116434819Y-110500475D02*
X115720533Y-110309999D01*
X115720533Y-110309999D02*
X116434819Y-110119523D01*
X116434819Y-110119523D02*
X115434819Y-109881428D01*
X116434819Y-108976666D02*
X116434819Y-109548094D01*
X116434819Y-109262380D02*
X115434819Y-109262380D01*
X115434819Y-109262380D02*
X115577676Y-109357618D01*
X115577676Y-109357618D02*
X115672914Y-109452856D01*
X115672914Y-109452856D02*
X115720533Y-109548094D01*
X126608333Y-96134580D02*
X126560714Y-96182200D01*
X126560714Y-96182200D02*
X126417857Y-96229819D01*
X126417857Y-96229819D02*
X126322619Y-96229819D01*
X126322619Y-96229819D02*
X126179762Y-96182200D01*
X126179762Y-96182200D02*
X126084524Y-96086961D01*
X126084524Y-96086961D02*
X126036905Y-95991723D01*
X126036905Y-95991723D02*
X125989286Y-95801247D01*
X125989286Y-95801247D02*
X125989286Y-95658390D01*
X125989286Y-95658390D02*
X126036905Y-95467914D01*
X126036905Y-95467914D02*
X126084524Y-95372676D01*
X126084524Y-95372676D02*
X126179762Y-95277438D01*
X126179762Y-95277438D02*
X126322619Y-95229819D01*
X126322619Y-95229819D02*
X126417857Y-95229819D01*
X126417857Y-95229819D02*
X126560714Y-95277438D01*
X126560714Y-95277438D02*
X126608333Y-95325057D01*
X127560714Y-96229819D02*
X126989286Y-96229819D01*
X127275000Y-96229819D02*
X127275000Y-95229819D01*
X127275000Y-95229819D02*
X127179762Y-95372676D01*
X127179762Y-95372676D02*
X127084524Y-95467914D01*
X127084524Y-95467914D02*
X126989286Y-95515533D01*
X135108333Y-111459580D02*
X135060714Y-111507200D01*
X135060714Y-111507200D02*
X134917857Y-111554819D01*
X134917857Y-111554819D02*
X134822619Y-111554819D01*
X134822619Y-111554819D02*
X134679762Y-111507200D01*
X134679762Y-111507200D02*
X134584524Y-111411961D01*
X134584524Y-111411961D02*
X134536905Y-111316723D01*
X134536905Y-111316723D02*
X134489286Y-111126247D01*
X134489286Y-111126247D02*
X134489286Y-110983390D01*
X134489286Y-110983390D02*
X134536905Y-110792914D01*
X134536905Y-110792914D02*
X134584524Y-110697676D01*
X134584524Y-110697676D02*
X134679762Y-110602438D01*
X134679762Y-110602438D02*
X134822619Y-110554819D01*
X134822619Y-110554819D02*
X134917857Y-110554819D01*
X134917857Y-110554819D02*
X135060714Y-110602438D01*
X135060714Y-110602438D02*
X135108333Y-110650057D01*
X135965476Y-110888152D02*
X135965476Y-111554819D01*
X135727381Y-110507200D02*
X135489286Y-111221485D01*
X135489286Y-111221485D02*
X136108333Y-111221485D01*
X105240258Y-104816372D02*
X105240258Y-105531040D01*
X105240258Y-105531040D02*
X105192614Y-105673973D01*
X105192614Y-105673973D02*
X105097325Y-105769263D01*
X105097325Y-105769263D02*
X104954391Y-105816907D01*
X104954391Y-105816907D02*
X104859102Y-105816907D01*
X105669059Y-104911661D02*
X105716703Y-104864017D01*
X105716703Y-104864017D02*
X105811992Y-104816372D01*
X105811992Y-104816372D02*
X106050215Y-104816372D01*
X106050215Y-104816372D02*
X106145504Y-104864017D01*
X106145504Y-104864017D02*
X106193148Y-104911661D01*
X106193148Y-104911661D02*
X106240793Y-105006950D01*
X106240793Y-105006950D02*
X106240793Y-105102239D01*
X106240793Y-105102239D02*
X106193148Y-105245173D01*
X106193148Y-105245173D02*
X105621414Y-105816907D01*
X105621414Y-105816907D02*
X106240793Y-105816907D01*
X113954819Y-98633333D02*
X114669104Y-98633333D01*
X114669104Y-98633333D02*
X114811961Y-98680952D01*
X114811961Y-98680952D02*
X114907200Y-98776190D01*
X114907200Y-98776190D02*
X114954819Y-98919047D01*
X114954819Y-98919047D02*
X114954819Y-99014285D01*
X114954819Y-97633333D02*
X114954819Y-98204761D01*
X114954819Y-97919047D02*
X113954819Y-97919047D01*
X113954819Y-97919047D02*
X114097676Y-98014285D01*
X114097676Y-98014285D02*
X114192914Y-98109523D01*
X114192914Y-98109523D02*
X114240533Y-98204761D01*
X123259580Y-103666666D02*
X123307200Y-103714285D01*
X123307200Y-103714285D02*
X123354819Y-103857142D01*
X123354819Y-103857142D02*
X123354819Y-103952380D01*
X123354819Y-103952380D02*
X123307200Y-104095237D01*
X123307200Y-104095237D02*
X123211961Y-104190475D01*
X123211961Y-104190475D02*
X123116723Y-104238094D01*
X123116723Y-104238094D02*
X122926247Y-104285713D01*
X122926247Y-104285713D02*
X122783390Y-104285713D01*
X122783390Y-104285713D02*
X122592914Y-104238094D01*
X122592914Y-104238094D02*
X122497676Y-104190475D01*
X122497676Y-104190475D02*
X122402438Y-104095237D01*
X122402438Y-104095237D02*
X122354819Y-103952380D01*
X122354819Y-103952380D02*
X122354819Y-103857142D01*
X122354819Y-103857142D02*
X122402438Y-103714285D01*
X122402438Y-103714285D02*
X122450057Y-103666666D01*
X122450057Y-103285713D02*
X122402438Y-103238094D01*
X122402438Y-103238094D02*
X122354819Y-103142856D01*
X122354819Y-103142856D02*
X122354819Y-102904761D01*
X122354819Y-102904761D02*
X122402438Y-102809523D01*
X122402438Y-102809523D02*
X122450057Y-102761904D01*
X122450057Y-102761904D02*
X122545295Y-102714285D01*
X122545295Y-102714285D02*
X122640533Y-102714285D01*
X122640533Y-102714285D02*
X122783390Y-102761904D01*
X122783390Y-102761904D02*
X123354819Y-103333332D01*
X123354819Y-103333332D02*
X123354819Y-102714285D01*
X152052200Y-114761904D02*
X152099819Y-114619047D01*
X152099819Y-114619047D02*
X152099819Y-114380952D01*
X152099819Y-114380952D02*
X152052200Y-114285714D01*
X152052200Y-114285714D02*
X152004580Y-114238095D01*
X152004580Y-114238095D02*
X151909342Y-114190476D01*
X151909342Y-114190476D02*
X151814104Y-114190476D01*
X151814104Y-114190476D02*
X151718866Y-114238095D01*
X151718866Y-114238095D02*
X151671247Y-114285714D01*
X151671247Y-114285714D02*
X151623628Y-114380952D01*
X151623628Y-114380952D02*
X151576009Y-114571428D01*
X151576009Y-114571428D02*
X151528390Y-114666666D01*
X151528390Y-114666666D02*
X151480771Y-114714285D01*
X151480771Y-114714285D02*
X151385533Y-114761904D01*
X151385533Y-114761904D02*
X151290295Y-114761904D01*
X151290295Y-114761904D02*
X151195057Y-114714285D01*
X151195057Y-114714285D02*
X151147438Y-114666666D01*
X151147438Y-114666666D02*
X151099819Y-114571428D01*
X151099819Y-114571428D02*
X151099819Y-114333333D01*
X151099819Y-114333333D02*
X151147438Y-114190476D01*
X151433152Y-113761904D02*
X152433152Y-113761904D01*
X151480771Y-113761904D02*
X151433152Y-113666666D01*
X151433152Y-113666666D02*
X151433152Y-113476190D01*
X151433152Y-113476190D02*
X151480771Y-113380952D01*
X151480771Y-113380952D02*
X151528390Y-113333333D01*
X151528390Y-113333333D02*
X151623628Y-113285714D01*
X151623628Y-113285714D02*
X151909342Y-113285714D01*
X151909342Y-113285714D02*
X152004580Y-113333333D01*
X152004580Y-113333333D02*
X152052200Y-113380952D01*
X152052200Y-113380952D02*
X152099819Y-113476190D01*
X152099819Y-113476190D02*
X152099819Y-113666666D01*
X152099819Y-113666666D02*
X152052200Y-113761904D01*
X152052200Y-112476190D02*
X152099819Y-112571428D01*
X152099819Y-112571428D02*
X152099819Y-112761904D01*
X152099819Y-112761904D02*
X152052200Y-112857142D01*
X152052200Y-112857142D02*
X151956961Y-112904761D01*
X151956961Y-112904761D02*
X151576009Y-112904761D01*
X151576009Y-112904761D02*
X151480771Y-112857142D01*
X151480771Y-112857142D02*
X151433152Y-112761904D01*
X151433152Y-112761904D02*
X151433152Y-112571428D01*
X151433152Y-112571428D02*
X151480771Y-112476190D01*
X151480771Y-112476190D02*
X151576009Y-112428571D01*
X151576009Y-112428571D02*
X151671247Y-112428571D01*
X151671247Y-112428571D02*
X151766485Y-112904761D01*
X152099819Y-111571428D02*
X151576009Y-111571428D01*
X151576009Y-111571428D02*
X151480771Y-111619047D01*
X151480771Y-111619047D02*
X151433152Y-111714285D01*
X151433152Y-111714285D02*
X151433152Y-111904761D01*
X151433152Y-111904761D02*
X151480771Y-111999999D01*
X152052200Y-111571428D02*
X152099819Y-111666666D01*
X152099819Y-111666666D02*
X152099819Y-111904761D01*
X152099819Y-111904761D02*
X152052200Y-111999999D01*
X152052200Y-111999999D02*
X151956961Y-112047618D01*
X151956961Y-112047618D02*
X151861723Y-112047618D01*
X151861723Y-112047618D02*
X151766485Y-111999999D01*
X151766485Y-111999999D02*
X151718866Y-111904761D01*
X151718866Y-111904761D02*
X151718866Y-111666666D01*
X151718866Y-111666666D02*
X151671247Y-111571428D01*
X152099819Y-111095237D02*
X151099819Y-111095237D01*
X151718866Y-110999999D02*
X152099819Y-110714285D01*
X151433152Y-110714285D02*
X151814104Y-111095237D01*
X152052200Y-109904761D02*
X152099819Y-109999999D01*
X152099819Y-109999999D02*
X152099819Y-110190475D01*
X152099819Y-110190475D02*
X152052200Y-110285713D01*
X152052200Y-110285713D02*
X151956961Y-110333332D01*
X151956961Y-110333332D02*
X151576009Y-110333332D01*
X151576009Y-110333332D02*
X151480771Y-110285713D01*
X151480771Y-110285713D02*
X151433152Y-110190475D01*
X151433152Y-110190475D02*
X151433152Y-109999999D01*
X151433152Y-109999999D02*
X151480771Y-109904761D01*
X151480771Y-109904761D02*
X151576009Y-109857142D01*
X151576009Y-109857142D02*
X151671247Y-109857142D01*
X151671247Y-109857142D02*
X151766485Y-110333332D01*
X152099819Y-109428570D02*
X151433152Y-109428570D01*
X151623628Y-109428570D02*
X151528390Y-109380951D01*
X151528390Y-109380951D02*
X151480771Y-109333332D01*
X151480771Y-109333332D02*
X151433152Y-109238094D01*
X151433152Y-109238094D02*
X151433152Y-109142856D01*
D12*
X130050000Y-97440000D02*
X130050000Y-101940000D01*
X130050000Y-101940000D02*
X140330000Y-101940000D01*
X140330000Y-97440000D02*
X130050000Y-97440000D01*
X140330000Y-98690000D02*
X140330000Y-97440000D01*
X140330000Y-101940000D02*
X140330000Y-100690000D01*
X140390000Y-94440000D02*
X129990000Y-94440000D01*
X129990000Y-104940000D01*
X140390000Y-104940000D01*
X140390000Y-94440000D01*
X140330000Y-100690000D02*
G75*
G02*
X140330000Y-98690000I0J1000000D01*
G01*
X144180000Y-103490000D02*
X144180000Y-102000000D01*
X144180000Y-106000000D02*
X144180000Y-104510000D01*
X145490000Y-100690000D02*
X149030000Y-100690000D01*
X149470000Y-107310000D02*
X145490000Y-107310000D01*
X151200000Y-100690000D02*
X150950000Y-100690000D01*
X151200000Y-100790000D02*
X151200000Y-100690000D01*
X151200000Y-102210000D02*
X151200000Y-105790000D01*
X151200000Y-102210000D02*
X151400000Y-102210000D01*
X151200000Y-105790000D02*
X151400000Y-105790000D01*
X151200000Y-107210000D02*
X151200000Y-107310000D01*
X151200000Y-107310000D02*
X150510000Y-107310000D01*
X151400000Y-100790000D02*
X151200000Y-100790000D01*
X151400000Y-100790000D02*
X151400000Y-102210000D01*
X151400000Y-105790000D02*
X151400000Y-107210000D01*
X151400000Y-107210000D02*
X151200000Y-107210000D01*
X144180000Y-102000000D02*
G75*
G02*
X145490000Y-100690000I1310000J0D01*
G01*
X145490000Y-107310000D02*
G75*
G02*
X144180000Y-106000000I0J1310000D01*
G01*
X146960000Y-95500000D02*
X145420000Y-95500000D01*
X146960000Y-95540000D02*
X145420000Y-95540000D01*
X146960000Y-95580000D02*
X145421000Y-95580000D01*
X146960000Y-95620000D02*
X145423000Y-95620000D01*
X146960000Y-95660000D02*
X145425000Y-95660000D01*
X146960000Y-95700000D02*
X145428000Y-95700000D01*
X146960000Y-95740000D02*
X145431000Y-95740000D01*
X146960000Y-95780000D02*
X145435000Y-95780000D01*
X146960000Y-95820000D02*
X145440000Y-95820000D01*
X146960000Y-95860000D02*
X145445000Y-95860000D01*
X146960000Y-95900000D02*
X145451000Y-95900000D01*
X146960000Y-95940000D02*
X145457000Y-95940000D01*
X146960000Y-95980000D02*
X145464000Y-95980000D01*
X146960000Y-96020000D02*
X145472000Y-96020000D01*
X146960000Y-96060000D02*
X145481000Y-96060000D01*
X146960000Y-96100000D02*
X145490000Y-96100000D01*
X146960000Y-96140000D02*
X145499000Y-96140000D01*
X146960000Y-96180000D02*
X145510000Y-96180000D01*
X146960000Y-96220000D02*
X145521000Y-96220000D01*
X146960000Y-96260000D02*
X145533000Y-96260000D01*
X146960000Y-96300000D02*
X145545000Y-96300000D01*
X146960000Y-96340000D02*
X145558000Y-96340000D01*
X146960000Y-96380000D02*
X145572000Y-96380000D01*
X146960000Y-96420000D02*
X145587000Y-96420000D01*
X146960000Y-96460000D02*
X145602000Y-96460000D01*
X146960000Y-96500000D02*
X145618000Y-96500000D01*
X146960000Y-96540000D02*
X145635000Y-96540000D01*
X146960000Y-96580000D02*
X145653000Y-96580000D01*
X146960000Y-96620000D02*
X145671000Y-96620000D01*
X146960000Y-96660000D02*
X145691000Y-96660000D01*
X146960000Y-96700000D02*
X145711000Y-96700000D01*
X146960000Y-96740000D02*
X145732000Y-96740000D01*
X146960000Y-96780000D02*
X145754000Y-96780000D01*
X146960000Y-96820000D02*
X145777000Y-96820000D01*
X146960000Y-96860000D02*
X145801000Y-96860000D01*
X146960000Y-96900000D02*
X145825000Y-96900000D01*
X146960000Y-96940000D02*
X145851000Y-96940000D01*
X146960000Y-96980000D02*
X145878000Y-96980000D01*
X146960000Y-97020000D02*
X145906000Y-97020000D01*
X146960000Y-97060000D02*
X145935000Y-97060000D01*
X146960000Y-97100000D02*
X145965000Y-97100000D01*
X146960000Y-97140000D02*
X145997000Y-97140000D01*
X146960000Y-97180000D02*
X146030000Y-97180000D01*
X146960000Y-97220000D02*
X146064000Y-97220000D01*
X146960000Y-97260000D02*
X146099000Y-97260000D01*
X146960000Y-97300000D02*
X146136000Y-97300000D01*
X146960000Y-97340000D02*
X146175000Y-97340000D01*
X146960000Y-97380000D02*
X146215000Y-97380000D01*
X146960000Y-97420000D02*
X146257000Y-97420000D01*
X146960000Y-97460000D02*
X146301000Y-97460000D01*
X146960000Y-97500000D02*
X146348000Y-97500000D01*
X148283000Y-98100000D02*
X147717000Y-98100000D01*
X148517000Y-98060000D02*
X147483000Y-98060000D01*
X148677000Y-98020000D02*
X147323000Y-98020000D01*
X148805000Y-97980000D02*
X147195000Y-97980000D01*
X148914000Y-97940000D02*
X147086000Y-97940000D01*
X149011000Y-97900000D02*
X146989000Y-97900000D01*
X149098000Y-97860000D02*
X146902000Y-97860000D01*
X149177000Y-97820000D02*
X146823000Y-97820000D01*
X149251000Y-97780000D02*
X146749000Y-97780000D01*
X149319000Y-97740000D02*
X146681000Y-97740000D01*
X149383000Y-97700000D02*
X146617000Y-97700000D01*
X149443000Y-97660000D02*
X146557000Y-97660000D01*
X149475000Y-92695225D02*
X149475000Y-93195225D01*
X149499000Y-97620000D02*
X146501000Y-97620000D01*
X149553000Y-97580000D02*
X146447000Y-97580000D01*
X149604000Y-97540000D02*
X146396000Y-97540000D01*
X149652000Y-97500000D02*
X149040000Y-97500000D01*
X149699000Y-97460000D02*
X149040000Y-97460000D01*
X149725000Y-92945225D02*
X149225000Y-92945225D01*
X149743000Y-97420000D02*
X149040000Y-97420000D01*
X149785000Y-97380000D02*
X149040000Y-97380000D01*
X149825000Y-97340000D02*
X149040000Y-97340000D01*
X149864000Y-97300000D02*
X149040000Y-97300000D01*
X149901000Y-97260000D02*
X149040000Y-97260000D01*
X149936000Y-97220000D02*
X149040000Y-97220000D01*
X149970000Y-97180000D02*
X149040000Y-97180000D01*
X150003000Y-97140000D02*
X149040000Y-97140000D01*
X150035000Y-97100000D02*
X149040000Y-97100000D01*
X150065000Y-97060000D02*
X149040000Y-97060000D01*
X150094000Y-97020000D02*
X149040000Y-97020000D01*
X150122000Y-96980000D02*
X149040000Y-96980000D01*
X150149000Y-96940000D02*
X149040000Y-96940000D01*
X150175000Y-96900000D02*
X149040000Y-96900000D01*
X150199000Y-96860000D02*
X149040000Y-96860000D01*
X150223000Y-96820000D02*
X149040000Y-96820000D01*
X150246000Y-96780000D02*
X149040000Y-96780000D01*
X150268000Y-96740000D02*
X149040000Y-96740000D01*
X150289000Y-96700000D02*
X149040000Y-96700000D01*
X150309000Y-96660000D02*
X149040000Y-96660000D01*
X150329000Y-96620000D02*
X149040000Y-96620000D01*
X150347000Y-96580000D02*
X149040000Y-96580000D01*
X150365000Y-96540000D02*
X149040000Y-96540000D01*
X150382000Y-96500000D02*
X149040000Y-96500000D01*
X150398000Y-96460000D02*
X149040000Y-96460000D01*
X150413000Y-96420000D02*
X149040000Y-96420000D01*
X150428000Y-96380000D02*
X149040000Y-96380000D01*
X150442000Y-96340000D02*
X149040000Y-96340000D01*
X150455000Y-96300000D02*
X149040000Y-96300000D01*
X150467000Y-96260000D02*
X149040000Y-96260000D01*
X150479000Y-96220000D02*
X149040000Y-96220000D01*
X150490000Y-96180000D02*
X149040000Y-96180000D01*
X150501000Y-96140000D02*
X149040000Y-96140000D01*
X150510000Y-96100000D02*
X149040000Y-96100000D01*
X150519000Y-96060000D02*
X149040000Y-96060000D01*
X150528000Y-96020000D02*
X149040000Y-96020000D01*
X150536000Y-95980000D02*
X149040000Y-95980000D01*
X150543000Y-95940000D02*
X149040000Y-95940000D01*
X150549000Y-95900000D02*
X149040000Y-95900000D01*
X150555000Y-95860000D02*
X149040000Y-95860000D01*
X150560000Y-95820000D02*
X149040000Y-95820000D01*
X150565000Y-95780000D02*
X149040000Y-95780000D01*
X150569000Y-95740000D02*
X149040000Y-95740000D01*
X150572000Y-95700000D02*
X149040000Y-95700000D01*
X150575000Y-95660000D02*
X149040000Y-95660000D01*
X150577000Y-95620000D02*
X149040000Y-95620000D01*
X150579000Y-95580000D02*
X149040000Y-95580000D01*
X150580000Y-95500000D02*
X149040000Y-95500000D01*
X150580000Y-95540000D02*
X149040000Y-95540000D01*
X150620000Y-95500000D02*
G75*
G02*
X145380000Y-95500000I-2620000J0D01*
G01*
X145380000Y-95500000D02*
G75*
G02*
X150620000Y-95500000I2620000J0D01*
G01*
X116740000Y-115500000D02*
X116740000Y-114117000D01*
X116740000Y-115500000D02*
X118123000Y-115500000D01*
X116980000Y-105360000D02*
X121820000Y-105360000D01*
X116980000Y-115260000D02*
X116980000Y-105360000D01*
X116980000Y-115260000D02*
X121820000Y-115260000D01*
X118765000Y-110986667D02*
X120035000Y-110986667D01*
X121820000Y-115260000D02*
X121820000Y-105360000D01*
X118765000Y-112340000D02*
X120035000Y-112340000D01*
X120035000Y-108280000D01*
X118765000Y-108280000D01*
X118765000Y-112340000D01*
X118765000Y-112340000D02*
X120035000Y-112340000D01*
X120035000Y-110986667D01*
X118765000Y-110986667D01*
X118765000Y-112340000D01*
G36*
X118765000Y-112340000D02*
G01*
X120035000Y-112340000D01*
X120035000Y-110986667D01*
X118765000Y-110986667D01*
X118765000Y-112340000D01*
G37*
X116740302Y-93485000D02*
X117540302Y-93485000D01*
X117140302Y-93085000D02*
X117140302Y-93885000D01*
X121150000Y-91720000D02*
X121150000Y-99880000D01*
X121190000Y-91720000D02*
X121190000Y-99880000D01*
X121230000Y-91721000D02*
X121230000Y-99879000D01*
X121270000Y-91722000D02*
X121270000Y-99878000D01*
X121310000Y-91723000D02*
X121310000Y-99877000D01*
X121350000Y-91725000D02*
X121350000Y-99875000D01*
X121390000Y-91727000D02*
X121390000Y-99873000D01*
X121430000Y-91730000D02*
X121430000Y-99870000D01*
X121470000Y-91732000D02*
X121470000Y-99868000D01*
X121510000Y-91736000D02*
X121510000Y-99864000D01*
X121550000Y-91739000D02*
X121550000Y-99861000D01*
X121590000Y-91744000D02*
X121590000Y-99856000D01*
X121630000Y-91748000D02*
X121630000Y-99852000D01*
X121670000Y-91753000D02*
X121670000Y-99847000D01*
X121710000Y-91758000D02*
X121710000Y-99842000D01*
X121750000Y-91764000D02*
X121750000Y-99836000D01*
X121790000Y-91770000D02*
X121790000Y-99830000D01*
X121830000Y-91777000D02*
X121830000Y-99823000D01*
X121870000Y-91783000D02*
X121870000Y-94760000D01*
X121870000Y-96840000D02*
X121870000Y-99817000D01*
X121910000Y-91791000D02*
X121910000Y-94760000D01*
X121910000Y-96840000D02*
X121910000Y-99809000D01*
X121950000Y-91798000D02*
X121950000Y-94760000D01*
X121950000Y-96840000D02*
X121950000Y-99802000D01*
X121990000Y-91807000D02*
X121990000Y-94760000D01*
X121990000Y-96840000D02*
X121990000Y-99793000D01*
X122030000Y-91815000D02*
X122030000Y-94760000D01*
X122030000Y-96840000D02*
X122030000Y-99785000D01*
X122070000Y-91824000D02*
X122070000Y-94760000D01*
X122070000Y-96840000D02*
X122070000Y-99776000D01*
X122110000Y-91833000D02*
X122110000Y-94760000D01*
X122110000Y-96840000D02*
X122110000Y-99767000D01*
X122150000Y-91843000D02*
X122150000Y-94760000D01*
X122150000Y-96840000D02*
X122150000Y-99757000D01*
X122190000Y-91853000D02*
X122190000Y-94760000D01*
X122190000Y-96840000D02*
X122190000Y-99747000D01*
X122230000Y-91864000D02*
X122230000Y-94760000D01*
X122230000Y-96840000D02*
X122230000Y-99736000D01*
X122270000Y-91875000D02*
X122270000Y-94760000D01*
X122270000Y-96840000D02*
X122270000Y-99725000D01*
X122310000Y-91887000D02*
X122310000Y-94760000D01*
X122310000Y-96840000D02*
X122310000Y-99713000D01*
X122350000Y-91899000D02*
X122350000Y-94760000D01*
X122350000Y-96840000D02*
X122350000Y-99701000D01*
X122390000Y-91911000D02*
X122390000Y-94760000D01*
X122390000Y-96840000D02*
X122390000Y-99689000D01*
X122430000Y-91924000D02*
X122430000Y-94760000D01*
X122430000Y-96840000D02*
X122430000Y-99676000D01*
X122470000Y-91937000D02*
X122470000Y-94760000D01*
X122470000Y-96840000D02*
X122470000Y-99663000D01*
X122510000Y-91951000D02*
X122510000Y-94760000D01*
X122510000Y-96840000D02*
X122510000Y-99649000D01*
X122550000Y-91965000D02*
X122550000Y-94760000D01*
X122550000Y-96840000D02*
X122550000Y-99635000D01*
X122590000Y-91980000D02*
X122590000Y-94760000D01*
X122590000Y-96840000D02*
X122590000Y-99620000D01*
X122630000Y-91995000D02*
X122630000Y-94760000D01*
X122630000Y-96840000D02*
X122630000Y-99605000D01*
X122670000Y-92011000D02*
X122670000Y-94760000D01*
X122670000Y-96840000D02*
X122670000Y-99589000D01*
X122710000Y-92027000D02*
X122710000Y-94760000D01*
X122710000Y-96840000D02*
X122710000Y-99573000D01*
X122750000Y-92043000D02*
X122750000Y-94760000D01*
X122750000Y-96840000D02*
X122750000Y-99557000D01*
X122790000Y-92060000D02*
X122790000Y-94760000D01*
X122790000Y-96840000D02*
X122790000Y-99540000D01*
X122830000Y-92078000D02*
X122830000Y-94760000D01*
X122830000Y-96840000D02*
X122830000Y-99522000D01*
X122870000Y-92096000D02*
X122870000Y-94760000D01*
X122870000Y-96840000D02*
X122870000Y-99504000D01*
X122910000Y-92115000D02*
X122910000Y-94760000D01*
X122910000Y-96840000D02*
X122910000Y-99485000D01*
X122950000Y-92134000D02*
X122950000Y-94760000D01*
X122950000Y-96840000D02*
X122950000Y-99466000D01*
X122990000Y-92154000D02*
X122990000Y-94760000D01*
X122990000Y-96840000D02*
X122990000Y-99446000D01*
X123030000Y-92174000D02*
X123030000Y-94760000D01*
X123030000Y-96840000D02*
X123030000Y-99426000D01*
X123070000Y-92195000D02*
X123070000Y-94760000D01*
X123070000Y-96840000D02*
X123070000Y-99405000D01*
X123110000Y-92216000D02*
X123110000Y-94760000D01*
X123110000Y-96840000D02*
X123110000Y-99384000D01*
X123150000Y-92238000D02*
X123150000Y-94760000D01*
X123150000Y-96840000D02*
X123150000Y-99362000D01*
X123190000Y-92261000D02*
X123190000Y-94760000D01*
X123190000Y-96840000D02*
X123190000Y-99339000D01*
X123230000Y-92284000D02*
X123230000Y-94760000D01*
X123230000Y-96840000D02*
X123230000Y-99316000D01*
X123270000Y-92307000D02*
X123270000Y-94760000D01*
X123270000Y-96840000D02*
X123270000Y-99293000D01*
X123310000Y-92332000D02*
X123310000Y-94760000D01*
X123310000Y-96840000D02*
X123310000Y-99268000D01*
X123350000Y-92357000D02*
X123350000Y-94760000D01*
X123350000Y-96840000D02*
X123350000Y-99243000D01*
X123390000Y-92382000D02*
X123390000Y-94760000D01*
X123390000Y-96840000D02*
X123390000Y-99218000D01*
X123430000Y-92408000D02*
X123430000Y-94760000D01*
X123430000Y-96840000D02*
X123430000Y-99192000D01*
X123470000Y-92435000D02*
X123470000Y-94760000D01*
X123470000Y-96840000D02*
X123470000Y-99165000D01*
X123510000Y-92463000D02*
X123510000Y-94760000D01*
X123510000Y-96840000D02*
X123510000Y-99137000D01*
X123550000Y-92491000D02*
X123550000Y-94760000D01*
X123550000Y-96840000D02*
X123550000Y-99109000D01*
X123590000Y-92520000D02*
X123590000Y-94760000D01*
X123590000Y-96840000D02*
X123590000Y-99080000D01*
X123630000Y-92550000D02*
X123630000Y-94760000D01*
X123630000Y-96840000D02*
X123630000Y-99050000D01*
X123670000Y-92581000D02*
X123670000Y-94760000D01*
X123670000Y-96840000D02*
X123670000Y-99019000D01*
X123710000Y-92612000D02*
X123710000Y-94760000D01*
X123710000Y-96840000D02*
X123710000Y-98988000D01*
X123750000Y-92644000D02*
X123750000Y-94760000D01*
X123750000Y-96840000D02*
X123750000Y-98956000D01*
X123790000Y-92677000D02*
X123790000Y-94760000D01*
X123790000Y-96840000D02*
X123790000Y-98923000D01*
X123830000Y-92711000D02*
X123830000Y-94760000D01*
X123830000Y-96840000D02*
X123830000Y-98889000D01*
X123870000Y-92745000D02*
X123870000Y-94760000D01*
X123870000Y-96840000D02*
X123870000Y-98855000D01*
X123910000Y-92781000D02*
X123910000Y-94760000D01*
X123910000Y-96840000D02*
X123910000Y-98819000D01*
X123950000Y-92818000D02*
X123950000Y-98782000D01*
X123990000Y-92855000D02*
X123990000Y-98745000D01*
X124030000Y-92894000D02*
X124030000Y-98706000D01*
X124070000Y-92933000D02*
X124070000Y-98667000D01*
X124110000Y-92974000D02*
X124110000Y-98626000D01*
X124150000Y-93016000D02*
X124150000Y-98584000D01*
X124190000Y-93059000D02*
X124190000Y-98541000D01*
X124230000Y-93104000D02*
X124230000Y-98496000D01*
X124270000Y-93149000D02*
X124270000Y-98451000D01*
X124310000Y-93196000D02*
X124310000Y-98404000D01*
X124350000Y-93245000D02*
X124350000Y-98355000D01*
X124390000Y-93295000D02*
X124390000Y-98305000D01*
X124430000Y-93347000D02*
X124430000Y-98253000D01*
X124470000Y-93400000D02*
X124470000Y-98200000D01*
X124510000Y-93456000D02*
X124510000Y-98144000D01*
X124550000Y-93513000D02*
X124550000Y-98087000D01*
X124590000Y-93573000D02*
X124590000Y-98027000D01*
X124630000Y-93635000D02*
X124630000Y-97965000D01*
X124670000Y-93699000D02*
X124670000Y-97901000D01*
X124710000Y-93766000D02*
X124710000Y-97834000D01*
X124750000Y-93836000D02*
X124750000Y-97764000D01*
X124790000Y-93910000D02*
X124790000Y-97690000D01*
X124830000Y-93987000D02*
X124830000Y-97613000D01*
X124870000Y-94069000D02*
X124870000Y-97531000D01*
X124910000Y-94156000D02*
X124910000Y-97444000D01*
X124950000Y-94248000D02*
X124950000Y-97352000D01*
X124990000Y-94347000D02*
X124990000Y-97253000D01*
X125030000Y-94454000D02*
X125030000Y-97146000D01*
X125070000Y-94572000D02*
X125070000Y-97028000D01*
X125110000Y-94703000D02*
X125110000Y-96897000D01*
X125150000Y-94853000D02*
X125150000Y-96747000D01*
X125190000Y-95032000D02*
X125190000Y-96568000D01*
X125230000Y-95267000D02*
X125230000Y-96333000D01*
X125270000Y-95800000D02*
G75*
G02*
X117030000Y-95800000I-4120000J0D01*
G01*
X117030000Y-95800000D02*
G75*
G02*
X125270000Y-95800000I4120000J0D01*
G01*
X125570000Y-111633000D02*
X125570000Y-110567000D01*
X125610000Y-111868000D02*
X125610000Y-110332000D01*
X125650000Y-112047000D02*
X125650000Y-110153000D01*
X125690000Y-112197000D02*
X125690000Y-110003000D01*
X125730000Y-112328000D02*
X125730000Y-109872000D01*
X125770000Y-112446000D02*
X125770000Y-109754000D01*
X125810000Y-112553000D02*
X125810000Y-109647000D01*
X125850000Y-112652000D02*
X125850000Y-109548000D01*
X125890000Y-112744000D02*
X125890000Y-109456000D01*
X125930000Y-112831000D02*
X125930000Y-109369000D01*
X125970000Y-112913000D02*
X125970000Y-109287000D01*
X126010000Y-112990000D02*
X126010000Y-109210000D01*
X126050000Y-113064000D02*
X126050000Y-109136000D01*
X126090000Y-113134000D02*
X126090000Y-109066000D01*
X126130000Y-113201000D02*
X126130000Y-108999000D01*
X126170000Y-113265000D02*
X126170000Y-108935000D01*
X126210000Y-113327000D02*
X126210000Y-108873000D01*
X126250000Y-113387000D02*
X126250000Y-108813000D01*
X126290000Y-113444000D02*
X126290000Y-108756000D01*
X126330000Y-113500000D02*
X126330000Y-108700000D01*
X126370000Y-113553000D02*
X126370000Y-108647000D01*
X126410000Y-113605000D02*
X126410000Y-108595000D01*
X126450000Y-113655000D02*
X126450000Y-108545000D01*
X126490000Y-113704000D02*
X126490000Y-108496000D01*
X126530000Y-113751000D02*
X126530000Y-108449000D01*
X126570000Y-113796000D02*
X126570000Y-108404000D01*
X126610000Y-113841000D02*
X126610000Y-108359000D01*
X126650000Y-113884000D02*
X126650000Y-108316000D01*
X126690000Y-113926000D02*
X126690000Y-108274000D01*
X126730000Y-113967000D02*
X126730000Y-108233000D01*
X126770000Y-114006000D02*
X126770000Y-108194000D01*
X126810000Y-114045000D02*
X126810000Y-108155000D01*
X126850000Y-114082000D02*
X126850000Y-108118000D01*
X126890000Y-110060000D02*
X126890000Y-108081000D01*
X126890000Y-114119000D02*
X126890000Y-112140000D01*
X126930000Y-110060000D02*
X126930000Y-108045000D01*
X126930000Y-114155000D02*
X126930000Y-112140000D01*
X126970000Y-110060000D02*
X126970000Y-108011000D01*
X126970000Y-114189000D02*
X126970000Y-112140000D01*
X127010000Y-110060000D02*
X127010000Y-107977000D01*
X127010000Y-114223000D02*
X127010000Y-112140000D01*
X127050000Y-110060000D02*
X127050000Y-107944000D01*
X127050000Y-114256000D02*
X127050000Y-112140000D01*
X127090000Y-110060000D02*
X127090000Y-107912000D01*
X127090000Y-114288000D02*
X127090000Y-112140000D01*
X127130000Y-110060000D02*
X127130000Y-107881000D01*
X127130000Y-114319000D02*
X127130000Y-112140000D01*
X127170000Y-110060000D02*
X127170000Y-107850000D01*
X127170000Y-114350000D02*
X127170000Y-112140000D01*
X127210000Y-110060000D02*
X127210000Y-107820000D01*
X127210000Y-114380000D02*
X127210000Y-112140000D01*
X127250000Y-110060000D02*
X127250000Y-107791000D01*
X127250000Y-114409000D02*
X127250000Y-112140000D01*
X127290000Y-110060000D02*
X127290000Y-107763000D01*
X127290000Y-114437000D02*
X127290000Y-112140000D01*
X127330000Y-110060000D02*
X127330000Y-107735000D01*
X127330000Y-114465000D02*
X127330000Y-112140000D01*
X127370000Y-110060000D02*
X127370000Y-107708000D01*
X127370000Y-114492000D02*
X127370000Y-112140000D01*
X127410000Y-110060000D02*
X127410000Y-107682000D01*
X127410000Y-114518000D02*
X127410000Y-112140000D01*
X127450000Y-110060000D02*
X127450000Y-107657000D01*
X127450000Y-114543000D02*
X127450000Y-112140000D01*
X127490000Y-110060000D02*
X127490000Y-107632000D01*
X127490000Y-114568000D02*
X127490000Y-112140000D01*
X127530000Y-110060000D02*
X127530000Y-107607000D01*
X127530000Y-114593000D02*
X127530000Y-112140000D01*
X127570000Y-110060000D02*
X127570000Y-107584000D01*
X127570000Y-114616000D02*
X127570000Y-112140000D01*
X127610000Y-110060000D02*
X127610000Y-107561000D01*
X127610000Y-114639000D02*
X127610000Y-112140000D01*
X127650000Y-110060000D02*
X127650000Y-107538000D01*
X127650000Y-114662000D02*
X127650000Y-112140000D01*
X127690000Y-110060000D02*
X127690000Y-107516000D01*
X127690000Y-114684000D02*
X127690000Y-112140000D01*
X127730000Y-110060000D02*
X127730000Y-107495000D01*
X127730000Y-114705000D02*
X127730000Y-112140000D01*
X127770000Y-110060000D02*
X127770000Y-107474000D01*
X127770000Y-114726000D02*
X127770000Y-112140000D01*
X127810000Y-110060000D02*
X127810000Y-107454000D01*
X127810000Y-114746000D02*
X127810000Y-112140000D01*
X127850000Y-110060000D02*
X127850000Y-107434000D01*
X127850000Y-114766000D02*
X127850000Y-112140000D01*
X127890000Y-110060000D02*
X127890000Y-107415000D01*
X127890000Y-114785000D02*
X127890000Y-112140000D01*
X127930000Y-110060000D02*
X127930000Y-107396000D01*
X127930000Y-114804000D02*
X127930000Y-112140000D01*
X127970000Y-110060000D02*
X127970000Y-107378000D01*
X127970000Y-114822000D02*
X127970000Y-112140000D01*
X128010000Y-110060000D02*
X128010000Y-107360000D01*
X128010000Y-114840000D02*
X128010000Y-112140000D01*
X128050000Y-110060000D02*
X128050000Y-107343000D01*
X128050000Y-114857000D02*
X128050000Y-112140000D01*
X128090000Y-110060000D02*
X128090000Y-107327000D01*
X128090000Y-114873000D02*
X128090000Y-112140000D01*
X128130000Y-110060000D02*
X128130000Y-107311000D01*
X128130000Y-114889000D02*
X128130000Y-112140000D01*
X128170000Y-110060000D02*
X128170000Y-107295000D01*
X128170000Y-114905000D02*
X128170000Y-112140000D01*
X128210000Y-110060000D02*
X128210000Y-107280000D01*
X128210000Y-114920000D02*
X128210000Y-112140000D01*
X128250000Y-110060000D02*
X128250000Y-107265000D01*
X128250000Y-114935000D02*
X128250000Y-112140000D01*
X128290000Y-110060000D02*
X128290000Y-107251000D01*
X128290000Y-114949000D02*
X128290000Y-112140000D01*
X128330000Y-110060000D02*
X128330000Y-107237000D01*
X128330000Y-114963000D02*
X128330000Y-112140000D01*
X128370000Y-110060000D02*
X128370000Y-107224000D01*
X128370000Y-114976000D02*
X128370000Y-112140000D01*
X128410000Y-110060000D02*
X128410000Y-107211000D01*
X128410000Y-114989000D02*
X128410000Y-112140000D01*
X128450000Y-110060000D02*
X128450000Y-107199000D01*
X128450000Y-115001000D02*
X128450000Y-112140000D01*
X128490000Y-110060000D02*
X128490000Y-107187000D01*
X128490000Y-115013000D02*
X128490000Y-112140000D01*
X128530000Y-110060000D02*
X128530000Y-107175000D01*
X128530000Y-115025000D02*
X128530000Y-112140000D01*
X128570000Y-110060000D02*
X128570000Y-107164000D01*
X128570000Y-115036000D02*
X128570000Y-112140000D01*
X128610000Y-110060000D02*
X128610000Y-107153000D01*
X128610000Y-115047000D02*
X128610000Y-112140000D01*
X128650000Y-110060000D02*
X128650000Y-107143000D01*
X128650000Y-115057000D02*
X128650000Y-112140000D01*
X128690000Y-110060000D02*
X128690000Y-107133000D01*
X128690000Y-115067000D02*
X128690000Y-112140000D01*
X128730000Y-110060000D02*
X128730000Y-107124000D01*
X128730000Y-115076000D02*
X128730000Y-112140000D01*
X128770000Y-110060000D02*
X128770000Y-107115000D01*
X128770000Y-115085000D02*
X128770000Y-112140000D01*
X128810000Y-110060000D02*
X128810000Y-107107000D01*
X128810000Y-115093000D02*
X128810000Y-112140000D01*
X128850000Y-110060000D02*
X128850000Y-107098000D01*
X128850000Y-115102000D02*
X128850000Y-112140000D01*
X128890000Y-110060000D02*
X128890000Y-107091000D01*
X128890000Y-115109000D02*
X128890000Y-112140000D01*
X128930000Y-110060000D02*
X128930000Y-107083000D01*
X128930000Y-115117000D02*
X128930000Y-112140000D01*
X128970000Y-115123000D02*
X128970000Y-107077000D01*
X129010000Y-115130000D02*
X129010000Y-107070000D01*
X129050000Y-115136000D02*
X129050000Y-107064000D01*
X129090000Y-115142000D02*
X129090000Y-107058000D01*
X129130000Y-115147000D02*
X129130000Y-107053000D01*
X129170000Y-115152000D02*
X129170000Y-107048000D01*
X129210000Y-115156000D02*
X129210000Y-107044000D01*
X129250000Y-115161000D02*
X129250000Y-107039000D01*
X129290000Y-115164000D02*
X129290000Y-107036000D01*
X129330000Y-115168000D02*
X129330000Y-107032000D01*
X129370000Y-115170000D02*
X129370000Y-107030000D01*
X129410000Y-115173000D02*
X129410000Y-107027000D01*
X129450000Y-115175000D02*
X129450000Y-107025000D01*
X129490000Y-115177000D02*
X129490000Y-107023000D01*
X129530000Y-115178000D02*
X129530000Y-107022000D01*
X129570000Y-115179000D02*
X129570000Y-107021000D01*
X129610000Y-115180000D02*
X129610000Y-107020000D01*
X129650000Y-115180000D02*
X129650000Y-107020000D01*
X133659698Y-113815000D02*
X133659698Y-113015000D01*
X134059698Y-113415000D02*
X133259698Y-113415000D01*
X133770000Y-111100000D02*
G75*
G02*
X125530000Y-111100000I-4120000J0D01*
G01*
X125530000Y-111100000D02*
G75*
G02*
X133770000Y-111100000I4120000J0D01*
G01*
D13*
X102300000Y-106300000D02*
X113500000Y-106300000D01*
X102300000Y-115300000D02*
X102300000Y-106300000D01*
X113500000Y-106300000D02*
X113500000Y-115300000D01*
X113500000Y-115300000D02*
X102300000Y-115300000D01*
D12*
X99400000Y-95300000D02*
X101200000Y-95300000D01*
X99400000Y-100300000D02*
X102400000Y-100300000D01*
X99400000Y-101300000D02*
X99400000Y-95300000D01*
X101200000Y-93800000D02*
X102400000Y-93800000D01*
X101200000Y-95300000D02*
X101200000Y-93800000D01*
X101200000Y-101300000D02*
X99400000Y-101300000D01*
X101200000Y-102800000D02*
X101200000Y-101300000D01*
X102400000Y-92300000D02*
X113400000Y-92300000D01*
X102400000Y-93800000D02*
X102400000Y-92300000D01*
X102400000Y-96300000D02*
X99400000Y-96300000D01*
X102400000Y-100300000D02*
X102400000Y-96300000D01*
X102400000Y-102800000D02*
X101200000Y-102800000D01*
X102400000Y-104300000D02*
X102400000Y-102800000D01*
X113400000Y-92300000D02*
X113400000Y-104300000D01*
X113400000Y-104300000D02*
X102400000Y-104300000D01*
X123840000Y-104211252D02*
X123840000Y-102788748D01*
X125660000Y-104211252D02*
X125660000Y-102788748D01*
X145345000Y-113380000D02*
X145345000Y-112000000D01*
X146725000Y-113380000D02*
X145345000Y-113380000D01*
X147995000Y-110620000D02*
X150645000Y-110620000D01*
X147995000Y-113380000D02*
X147995000Y-110620000D01*
X147995000Y-113380000D02*
X150645000Y-113380000D01*
X150645000Y-113380000D02*
X150645000Y-110620000D01*
M02*
