M48
; DRILL file {KiCad 9.0.1-9.0.1-0~ubuntu24.04.1} date 2025-05-03T19:15:58+0100
; FORMAT={-:-/ absolute / metric / decimal}
; #@! TF.CreationDate,2025-05-03T19:15:58+01:00
; #@! TF.GenerationSoftware,Kicad,Pcbnew,9.0.1-9.0.1-0~ubuntu24.04.1
; #@! TF.FileFunction,Plated,1,2,PTH
FMAT,2
METRIC
; #@! TA.AperFunction,Plated,PTH,ComponentDrill
T1C0.400
; #@! TA.AperFunction,Plated,PTH,ComponentDrill
T2C0.800
; #@! TA.AperFunction,Plated,PTH,ComponentDrill
T3C1.000
; #@! TA.AperFunction,Plated,PTH,ComponentDrill
T4C1.300
%
G90
G05
T2
X119.4Y-95.8
X119.4Y-106.5
X119.4Y-114.12
X122.9Y-95.8
X127.9Y-111.1
X131.38Y-95.88
X131.38Y-103.5
X131.4Y-111.1
X133.92Y-95.88
X133.92Y-103.5
X136.46Y-95.88
X136.46Y-103.5
X139.0Y-95.88
X139.0Y-103.5
X148.0Y-94.5
X148.0Y-96.5
T3
X144.99Y-104.0
X146.725Y-112.0
X149.265Y-112.0
X149.99Y-101.5
X149.99Y-106.5
T4
X105.4Y-111.3
X110.4Y-111.3
T1
X105.7Y-97.8G85X105.7Y-98.8
G05
X111.2Y-93.3G85X110.2Y-93.3
G05
X110.2Y-103.3G85X111.2Y-103.3
G05
M30
