G04 #@! TF.GenerationSoftware,KiCad,Pcbnew,9.0.1-9.0.1-0~ubuntu24.04.1*
G04 #@! TF.CreationDate,2025-05-03T19:14:28+01:00*
G04 #@! TF.ProjectId,Kicad_Amplificador,4b696361-645f-4416-9d70-6c6966696361,rev?*
G04 #@! TF.SameCoordinates,Original*
G04 #@! TF.FileFunction,Copper,L2,Bot*
G04 #@! TF.FilePolarity,Positive*
%FSLAX46Y46*%
G04 Gerber Fmt 4.6, Leading zero omitted, Abs format (unit mm)*
G04 Created by KiCad (PCBNEW 9.0.1-9.0.1-0~ubuntu24.04.1) date 2025-05-03 19:14:28*
%MOMM*%
%LPD*%
G01*
G04 APERTURE LIST*
G04 Aperture macros list*
%AMRoundRect*
0 Rectangle with rounded corners*
0 $1 Rounding radius*
0 $2 $3 $4 $5 $6 $7 $8 $9 X,Y pos of 4 corners*
0 Add a 4 corners polygon primitive as box body*
4,1,4,$2,$3,$4,$5,$6,$7,$8,$9,$2,$3,0*
0 Add four circle primitives for the rounded corners*
1,1,$1+$1,$2,$3*
1,1,$1+$1,$4,$5*
1,1,$1+$1,$6,$7*
1,1,$1+$1,$8,$9*
0 Add four rect primitives between the rounded corners*
20,1,$1+$1,$2,$3,$4,$5,0*
20,1,$1+$1,$4,$5,$6,$7,0*
20,1,$1+$1,$6,$7,$8,$9,0*
20,1,$1+$1,$8,$9,$2,$3,0*%
G04 Aperture macros list end*
G04 #@! TA.AperFunction,ComponentPad*
%ADD10RoundRect,0.250000X-0.550000X0.950000X-0.550000X-0.950000X0.550000X-0.950000X0.550000X0.950000X0*%
G04 #@! TD*
G04 #@! TA.AperFunction,ComponentPad*
%ADD11O,1.600000X2.400000*%
G04 #@! TD*
G04 #@! TA.AperFunction,ComponentPad*
%ADD12R,1.560000X1.560000*%
G04 #@! TD*
G04 #@! TA.AperFunction,ComponentPad*
%ADD13C,1.560000*%
G04 #@! TD*
G04 #@! TA.AperFunction,ComponentPad*
%ADD14R,1.600000X1.600000*%
G04 #@! TD*
G04 #@! TA.AperFunction,ComponentPad*
%ADD15C,1.600000*%
G04 #@! TD*
G04 #@! TA.AperFunction,ComponentPad*
%ADD16RoundRect,0.250000X0.550000X-0.550000X0.550000X0.550000X-0.550000X0.550000X-0.550000X-0.550000X0*%
G04 #@! TD*
G04 #@! TA.AperFunction,ComponentPad*
%ADD17R,1.950000X1.950000*%
G04 #@! TD*
G04 #@! TA.AperFunction,ComponentPad*
%ADD18C,1.950000*%
G04 #@! TD*
G04 #@! TA.AperFunction,ComponentPad*
%ADD19O,2.200000X1.200000*%
G04 #@! TD*
G04 #@! TA.AperFunction,ComponentPad*
%ADD20O,1.200000X2.200000*%
G04 #@! TD*
G04 #@! TA.AperFunction,SMDPad,CuDef*
%ADD21RoundRect,0.250000X0.650000X-0.325000X0.650000X0.325000X-0.650000X0.325000X-0.650000X-0.325000X0*%
G04 #@! TD*
G04 #@! TA.AperFunction,ComponentPad*
%ADD22R,1.700000X1.700000*%
G04 #@! TD*
G04 #@! TA.AperFunction,ComponentPad*
%ADD23C,1.700000*%
G04 #@! TD*
G04 #@! TA.AperFunction,Conductor*
%ADD24C,0.800000*%
G04 #@! TD*
G04 #@! TA.AperFunction,Conductor*
%ADD25C,0.200000*%
G04 #@! TD*
G04 APERTURE END LIST*
D10*
X139000000Y-95880000D03*
D11*
X136460000Y-95880000D03*
X133920000Y-95880000D03*
X131380000Y-95880000D03*
X131380000Y-103500000D03*
X133920000Y-103500000D03*
X136460000Y-103500000D03*
X139000000Y-103500000D03*
D12*
X149990000Y-101500000D03*
D13*
X144990000Y-104000000D03*
X149990000Y-106500000D03*
D14*
X148000000Y-94500000D03*
D15*
X148000000Y-96500000D03*
D16*
X119400000Y-114120000D03*
D15*
X119400000Y-106500000D03*
D14*
X119400000Y-95800000D03*
D15*
X122900000Y-95800000D03*
D14*
X131400000Y-111100000D03*
D15*
X127900000Y-111100000D03*
D17*
X105400000Y-111300000D03*
D18*
X110400000Y-111300000D03*
D19*
X110700000Y-93300000D03*
D20*
X105700000Y-98300000D03*
D19*
X110700000Y-103300000D03*
D21*
X124750000Y-104975000D03*
X124750000Y-102025000D03*
D22*
X146725000Y-112000000D03*
D23*
X149265000Y-112000000D03*
D24*
X144250000Y-95250000D02*
X144500000Y-95500000D01*
X151000000Y-92000000D02*
X155500000Y-96500000D01*
X132100000Y-91500000D02*
X140500000Y-91500000D01*
X152500000Y-105750000D02*
X151750000Y-106500000D01*
X106900000Y-98300000D02*
X107200000Y-98600000D01*
X107200000Y-98600000D02*
X107200000Y-106300000D01*
X131380000Y-95880000D02*
X122980000Y-95880000D01*
X122100000Y-92800000D02*
X122900000Y-93600000D01*
X131380000Y-97680000D02*
X131380000Y-95880000D01*
X155500000Y-109250000D02*
X152750000Y-112000000D01*
X105400000Y-108100000D02*
X105400000Y-111300000D01*
X155500000Y-96500000D02*
X155500000Y-109250000D01*
X136460000Y-97640000D02*
X135700000Y-98400000D01*
X146250000Y-92000000D02*
X151000000Y-92000000D01*
X148000000Y-96500000D02*
X150500000Y-96500000D01*
X151750000Y-106500000D02*
X149990000Y-106500000D01*
X118600000Y-92800000D02*
X122100000Y-92800000D01*
X131380000Y-92220000D02*
X131380000Y-95880000D01*
X152500000Y-98500000D02*
X152500000Y-105750000D01*
X135700000Y-98400000D02*
X132100000Y-98400000D01*
X115500000Y-95900000D02*
X118600000Y-92800000D01*
X122900000Y-93600000D02*
X122900000Y-95800000D01*
X145500000Y-96500000D02*
X144500000Y-95500000D01*
X140500000Y-91500000D02*
X144250000Y-95250000D01*
X144250000Y-94000000D02*
X146250000Y-92000000D01*
X132100000Y-98400000D02*
X131380000Y-97680000D01*
X105700000Y-96500000D02*
X106300000Y-95900000D01*
X150500000Y-96500000D02*
X152500000Y-98500000D01*
X106300000Y-95900000D02*
X115500000Y-95900000D01*
X144250000Y-95250000D02*
X144250000Y-94000000D01*
X107200000Y-106300000D02*
X105400000Y-108100000D01*
X148000000Y-96500000D02*
X145500000Y-96500000D01*
X105700000Y-98300000D02*
X106900000Y-98300000D01*
X136460000Y-95880000D02*
X136460000Y-97640000D01*
X131380000Y-92220000D02*
X132100000Y-91500000D01*
X152750000Y-112000000D02*
X149265000Y-112000000D01*
X105700000Y-98300000D02*
X105700000Y-96500000D01*
X133920000Y-101770000D02*
X133920000Y-103500000D01*
X119400000Y-106500000D02*
X110000000Y-106500000D01*
X108500000Y-102000000D02*
X110200000Y-100300000D01*
X108500000Y-105000000D02*
X108500000Y-102000000D01*
X126400000Y-107100000D02*
X128600000Y-104900000D01*
X110000000Y-106500000D02*
X108500000Y-105000000D01*
X129675000Y-101025000D02*
X133175000Y-101025000D01*
X116900000Y-100300000D02*
X119400000Y-97800000D01*
X110200000Y-100300000D02*
X116900000Y-100300000D01*
X128600000Y-104900000D02*
X128600000Y-102100000D01*
X119400000Y-97800000D02*
X119400000Y-95800000D01*
X133175000Y-101025000D02*
X133920000Y-101770000D01*
X123100000Y-107100000D02*
X126400000Y-107100000D01*
X122500000Y-106500000D02*
X123100000Y-107100000D01*
X119400000Y-106500000D02*
X122500000Y-106500000D01*
X128600000Y-102100000D02*
X129675000Y-101025000D01*
X110700000Y-103300000D02*
X120000000Y-103300000D01*
D25*
X124725000Y-105000000D02*
X124750000Y-104975000D01*
D24*
X120000000Y-103300000D02*
X121700000Y-105000000D01*
X121700000Y-105000000D02*
X124800000Y-105000000D01*
X142500000Y-99700000D02*
X144990000Y-102190000D01*
X144990000Y-102190000D02*
X144990000Y-104000000D01*
X124750000Y-102025000D02*
X126525000Y-102025000D01*
X126525000Y-102025000D02*
X128850000Y-99700000D01*
X128850000Y-99700000D02*
X142500000Y-99700000D01*
X154000000Y-108000000D02*
X152750000Y-109250000D01*
X136460000Y-106660000D02*
X136460000Y-103500000D01*
X151000000Y-94500000D02*
X154000000Y-97500000D01*
X152750000Y-109250000D02*
X139050000Y-109250000D01*
X139050000Y-109250000D02*
X136460000Y-106660000D01*
X148000000Y-94500000D02*
X151000000Y-94500000D01*
X154000000Y-97500000D02*
X154000000Y-108000000D01*
X131400000Y-111100000D02*
X131400000Y-103520000D01*
X127900000Y-111100000D02*
X127900000Y-113200000D01*
X141500000Y-112000000D02*
X146725000Y-112000000D01*
X127900000Y-113200000D02*
X128800000Y-114100000D01*
X128800000Y-114100000D02*
X139400000Y-114100000D01*
X139400000Y-114100000D02*
X141500000Y-112000000D01*
X134600000Y-93000000D02*
X133920000Y-93680000D01*
X133920000Y-93680000D02*
X133920000Y-95880000D01*
X140050000Y-93000000D02*
X134600000Y-93000000D01*
X149990000Y-101500000D02*
X148550000Y-101500000D01*
X148550000Y-101500000D02*
X140050000Y-93000000D01*
X110400000Y-113500000D02*
X110400000Y-111300000D01*
X119400000Y-114120000D02*
X111020000Y-114120000D01*
X111020000Y-114120000D02*
X110400000Y-113500000D01*
M02*
